<svg width="2509" height="323" viewBox="0 0 2509 323" fill="none" xmlns="http://www.w3.org/2000/svg">
<path d="M142.985 309.395H318.996C326.166 309.395 331.713 303.849 331.713 296.678C331.713 290.59 327.519 286.126 322.378 283.691C305.738 276.25 302.491 253.251 319.402 237.151C326.302 231.063 331.578 224.299 331.578 210.635V60.87C331.578 31.6476 316.561 16.3599 287.474 16.3599H143.256C114.304 16.3599 99.1517 31.5123 99.1517 60.87V265.291C99.1517 294.243 114.304 309.395 142.985 309.395ZM141.226 220.24C136.762 220.24 132.974 216.587 132.974 211.988V47.3411C132.974 42.7413 136.762 39.0885 141.226 39.0885C145.691 39.0885 149.479 42.7413 149.479 47.3411V211.988C149.479 216.587 145.691 220.24 141.226 220.24ZM187.225 104.974C181.813 104.974 177.078 100.374 177.078 94.9627C177.078 89.2806 181.813 84.8161 187.225 84.8161H285.174C290.721 84.8161 295.32 89.2806 295.32 94.9627C295.32 100.374 290.721 104.974 285.174 104.974H187.225ZM187.225 144.208C181.813 144.208 177.078 139.743 177.078 134.061C177.078 128.65 181.813 124.05 187.225 124.05H261.633C267.18 124.05 271.78 128.65 271.78 134.061C271.78 139.743 267.18 144.208 261.633 144.208H187.225ZM146.638 283.961C132.162 283.961 124.586 275.709 124.586 262.991C124.586 250.68 133.244 242.157 147.585 242.157H282.603C284.091 242.157 285.58 242.022 286.932 241.751C280.168 256.092 280.98 271.65 288.285 283.961H146.638Z" fill="#0366D6"/>
<path d="M511.234 262.602C536.448 262.602 548.362 249.303 554.458 241.822H556.951V259H589.091V51.1964H556.397V132.378H553.903C547.531 124.066 535.063 110.213 509.295 110.213C470.228 110.213 442.244 143.184 442.244 186.407C442.244 230.462 472.167 262.602 511.234 262.602ZM516.499 232.124C493.779 232.124 475.215 214.114 475.215 186.684C475.215 159.808 492.948 140.968 516.222 140.968C538.664 140.968 557.228 157.869 557.228 186.684C557.228 211.344 541.158 232.124 516.499 232.124ZM690.435 262.602C735.043 262.602 767.183 229.63 767.183 186.407C767.183 143.184 735.32 110.213 690.712 110.213C646.103 110.213 613.963 143.184 613.963 186.407C613.963 229.908 645.826 262.602 690.435 262.602ZM690.435 231.57C665.221 231.57 647.212 212.729 647.212 186.407C647.212 160.64 664.944 141.245 690.435 141.245C715.925 141.245 733.935 160.64 733.935 186.407C733.935 212.452 715.925 231.57 690.435 231.57ZM860.505 262.602C894.584 262.602 923.123 243.761 931.435 208.573L900.403 201.092C896.524 219.933 881.008 231.57 861.336 231.57C836.399 231.57 818.667 212.452 818.667 186.407C818.667 160.917 835.845 141.245 861.059 141.245C880.731 141.245 896.247 153.159 900.126 172L931.158 164.519C922.846 129.331 894.307 110.213 860.228 110.213C815.896 110.213 785.141 144.015 785.141 186.407C785.141 228.799 815.342 262.602 860.505 262.602ZM1011.34 262.602C1030.74 262.602 1044.04 253.459 1050.41 242.376H1052.9V259H1085.6V113.815H1052.9V198.598C1052.9 216.885 1039.33 230.739 1021.32 230.739C1004.69 230.739 991.947 218.271 991.947 200.261V113.815H959.252V208.85C959.252 238.774 979.479 262.602 1011.34 262.602ZM1123.12 259H1155.82V172.831C1155.82 153.713 1168.84 141.245 1184.63 141.245C1200.15 141.245 1212.34 151.773 1212.34 169.506V259H1245.04V173.385C1245.04 152.605 1258.34 141.245 1274.13 141.245C1290.2 141.245 1301.28 152.05 1301.28 173.385V259H1334.25V162.579C1334.25 132.933 1312.92 110.213 1281.89 110.213C1261.94 110.213 1247.53 119.356 1239.22 133.764H1236.72C1229.24 119.91 1215.39 110.213 1195.44 110.213C1176.32 110.213 1164.13 120.187 1158.31 130.162H1155.82V113.815H1123.12V259ZM1433.26 262.602C1463.46 262.602 1490.06 247.64 1499.48 217.439L1469.56 210.235C1464.3 226.306 1449.06 234.618 1432.99 234.618C1409.16 234.618 1393.36 219.102 1393.09 194.719H1503.09V185.576C1503.09 142.353 1476.21 110.213 1431.88 110.213C1392.81 110.213 1359.29 140.968 1359.29 186.684C1359.29 231.016 1388.93 262.602 1433.26 262.602ZM1393.36 170.891C1395.3 153.436 1411.1 138.751 1431.88 138.751C1451.83 138.751 1468.17 151.219 1469.84 170.891H1393.36ZM1530.69 259H1563.38V173.385C1563.38 155.098 1576.96 141.245 1594.97 141.245C1611.6 141.245 1624.34 153.713 1624.34 171.722V259H1657.04V163.964C1657.04 134.041 1636.81 110.213 1604.95 110.213C1585.55 110.213 1572.25 119.356 1565.88 130.439H1563.38V113.815H1530.69V259ZM1752.54 259H1778.03V229.908H1752.82C1742.84 229.908 1738.69 225.474 1738.69 215.223V142.63H1779.7V113.815H1738.69V73.0851H1707.66V113.815H1680.5V142.63H1705.72V215.5C1705.72 246.255 1724.28 259 1752.54 259ZM1867.66 262.602C1892.87 262.602 1905.62 249.58 1911.16 240.713H1913.65C1914.76 250.134 1921.41 259 1934.43 259H1959.09V231.293H1952.72C1948.29 231.293 1946.07 228.799 1946.07 224.92V113.815H1913.38V131.547H1910.88C1904.51 122.681 1891.21 110.213 1866.83 110.213C1828.04 110.213 1799.22 142.353 1799.22 186.407C1799.22 230.462 1828.59 262.602 1867.66 262.602ZM1873.48 231.016C1850.48 231.016 1832.47 214.114 1832.47 186.684C1832.47 159.808 1849.93 141.522 1873.2 141.522C1895.37 141.522 1913.93 157.869 1913.93 186.684C1913.93 211.344 1898.14 231.016 1873.48 231.016ZM2046.47 259H2071.96V229.908H2046.74C2036.77 229.908 2032.61 225.474 2032.61 215.223V142.63H2073.62V113.815H2032.61V73.0851H2001.58V113.815H1974.43V142.63H1999.64V215.5C1999.64 246.255 2018.2 259 2046.47 259ZM2136.65 91.3718C2148.56 91.3718 2157.43 82.5055 2157.43 70.8685C2157.43 59.5086 2148.56 50.6423 2136.65 50.6423C2124.73 50.6423 2115.87 59.5086 2115.87 70.8685C2115.87 82.5055 2124.73 91.3718 2136.65 91.3718ZM2120.02 259H2152.72V113.815H2094.53V142.63H2120.02V259ZM2260.16 262.602C2304.77 262.602 2336.91 229.63 2336.91 186.407C2336.91 143.184 2305.05 110.213 2260.44 110.213C2215.83 110.213 2183.69 143.184 2183.69 186.407C2183.69 229.908 2215.55 262.602 2260.16 262.602ZM2260.16 231.57C2234.95 231.57 2216.94 212.729 2216.94 186.407C2216.94 160.64 2234.67 141.245 2260.16 141.245C2285.65 141.245 2303.66 160.64 2303.66 186.407C2303.66 212.452 2285.65 231.57 2260.16 231.57ZM2364.57 259H2397.26V173.385C2397.26 155.098 2410.84 141.245 2428.85 141.245C2445.47 141.245 2458.22 153.713 2458.22 171.722V259H2490.91V163.964C2490.91 134.041 2470.69 110.213 2438.82 110.213C2419.43 110.213 2406.13 119.356 2399.76 130.439H2397.26V113.815H2364.57V259Z" fill="black"/>
</svg>
