<svg width="1880" height="323" viewBox="0 0 1880 323" fill="none" xmlns="http://www.w3.org/2000/svg">
<path d="M142.985 309.395H318.996C326.166 309.395 331.713 303.849 331.713 296.678C331.713 290.59 327.519 286.126 322.378 283.691C305.738 276.25 302.491 253.251 319.402 237.151C326.302 231.063 331.578 224.299 331.578 210.635V60.87C331.578 31.6476 316.561 16.3599 287.474 16.3599H143.256C114.304 16.3599 99.1517 31.5123 99.1517 60.87V265.291C99.1517 294.243 114.304 309.395 142.985 309.395ZM141.226 220.24C136.762 220.24 132.974 216.587 132.974 211.988V47.3411C132.974 42.7413 136.762 39.0885 141.226 39.0885C145.691 39.0885 149.479 42.7413 149.479 47.3411V211.988C149.479 216.587 145.691 220.24 141.226 220.24ZM187.225 104.974C181.813 104.974 177.078 100.374 177.078 94.9627C177.078 89.2806 181.813 84.8161 187.225 84.8161H285.174C290.721 84.8161 295.32 89.2806 295.32 94.9627C295.32 100.374 290.721 104.974 285.174 104.974H187.225ZM187.225 144.208C181.813 144.208 177.078 139.743 177.078 134.061C177.078 128.65 181.813 124.05 187.225 124.05H261.633C267.18 124.05 271.78 128.65 271.78 134.061C271.78 139.743 267.18 144.208 261.633 144.208H187.225ZM146.638 283.961C132.162 283.961 124.586 275.709 124.586 262.991C124.586 250.68 133.244 242.157 147.585 242.157H282.603C284.091 242.157 285.58 242.022 286.932 241.751C280.168 256.092 280.98 271.65 288.285 283.961H146.638Z" fill="#0366D6"/>
<path d="M451.377 233.576C469.407 233.576 477.927 224.065 482.286 218.716H484.069V231H507.053V82.3974H483.673V140.452H481.89C477.332 134.507 468.416 124.601 449.99 124.601C422.052 124.601 402.04 148.179 402.04 179.088C402.04 210.592 423.439 233.576 451.377 233.576ZM455.141 211.781C438.894 211.781 425.619 198.902 425.619 179.286C425.619 160.067 438.299 146.594 454.943 146.594C470.992 146.594 484.267 158.68 484.267 179.286C484.267 196.92 472.775 211.781 455.141 211.781ZM579.525 233.576C611.425 233.576 634.408 209.998 634.408 179.088C634.408 148.179 611.623 124.601 579.723 124.601C547.823 124.601 524.839 148.179 524.839 179.088C524.839 210.196 547.625 233.576 579.525 233.576ZM579.525 211.384C561.494 211.384 548.615 197.911 548.615 179.088C548.615 160.661 561.296 146.792 579.525 146.792C597.753 146.792 610.632 160.661 610.632 179.088C610.632 197.713 597.753 211.384 579.525 211.384ZM701.143 233.576C725.514 233.576 745.922 220.102 751.866 194.939L729.675 189.589C726.901 203.063 715.805 211.384 701.738 211.384C683.905 211.384 671.225 197.713 671.225 179.088C671.225 160.86 683.509 146.792 701.54 146.792C715.607 146.792 726.703 155.312 729.477 168.785L751.668 163.435C745.724 138.272 725.316 124.601 700.945 124.601C669.243 124.601 647.25 148.773 647.25 179.088C647.25 209.403 668.847 233.576 701.143 233.576ZM809.009 233.576C822.878 233.576 832.389 227.037 836.946 219.112H838.729V231H862.109V127.176H838.729V187.806C838.729 200.883 829.02 210.79 816.142 210.79C804.253 210.79 795.139 201.874 795.139 188.995V127.176H771.759V195.137C771.759 216.536 786.223 233.576 809.009 233.576ZM888.946 231H912.326V169.379C912.326 155.708 921.639 146.792 932.932 146.792C944.028 146.792 952.746 154.321 952.746 167.002V231H976.126V169.776C976.126 154.915 985.637 146.792 996.93 146.792C1008.42 146.792 1016.35 154.519 1016.35 169.776V231H1039.93V162.048C1039.93 140.848 1024.67 124.601 1002.48 124.601C988.212 124.601 977.909 131.139 971.965 141.442H970.182C964.832 131.535 954.926 124.601 940.66 124.601C926.988 124.601 918.27 131.733 914.109 138.866H912.326V127.176H888.946V231ZM1110.73 233.576C1132.33 233.576 1151.35 222.876 1158.08 201.279L1136.68 196.128C1132.92 207.62 1122.02 213.564 1110.53 213.564C1093.49 213.564 1082.2 202.468 1082 185.032H1160.66V178.494C1160.66 147.584 1141.44 124.601 1109.74 124.601C1081.8 124.601 1057.83 146.594 1057.83 179.286C1057.83 210.988 1079.03 233.576 1110.73 233.576ZM1082.2 167.993C1083.58 155.51 1094.88 145.009 1109.74 145.009C1124 145.009 1135.69 153.925 1136.88 167.993H1082.2ZM1180.4 231H1203.78V169.776C1203.78 156.699 1213.49 146.792 1226.37 146.792C1238.26 146.792 1247.37 155.708 1247.37 168.587V231H1270.75V163.039C1270.75 141.64 1256.29 124.601 1233.5 124.601C1219.63 124.601 1210.12 131.139 1205.56 139.065H1203.78V127.176H1180.4V231ZM1339.05 231H1357.28V210.196H1339.25C1332.11 210.196 1329.14 207.025 1329.14 199.694V147.783H1358.47V127.176H1329.14V98.0503H1306.95V127.176H1287.53V147.783H1305.56V199.893C1305.56 221.886 1318.84 231 1339.05 231ZM1421.37 233.576C1439.4 233.576 1448.52 224.263 1452.48 217.923H1454.26C1455.05 224.66 1459.81 231 1469.12 231H1486.76V211.186H1482.2C1479.03 211.186 1477.44 209.403 1477.44 206.629V127.176H1454.06V139.857H1452.28C1447.72 133.517 1438.21 124.601 1420.78 124.601C1393.04 124.601 1372.43 147.584 1372.43 179.088C1372.43 210.592 1393.43 233.576 1421.37 233.576ZM1425.53 210.988C1409.09 210.988 1396.21 198.902 1396.21 179.286C1396.21 160.067 1408.69 146.99 1425.33 146.99C1441.18 146.99 1454.46 158.68 1454.46 179.286C1454.46 196.92 1443.17 210.988 1425.53 210.988ZM1549.24 231H1567.47V210.196H1549.43C1542.3 210.196 1539.33 207.025 1539.33 199.694V147.783H1568.65V127.176H1539.33V98.0503H1517.14V127.176H1497.72V147.783H1515.75V199.893C1515.75 221.886 1529.03 231 1549.24 231ZM1613.73 111.127C1622.25 111.127 1628.59 104.787 1628.59 96.4652C1628.59 88.3416 1622.25 82.0012 1613.73 82.0012C1605.21 82.0012 1598.87 88.3416 1598.87 96.4652C1598.87 104.787 1605.21 111.127 1613.73 111.127ZM1601.84 231H1625.22V127.176H1583.61V147.783H1601.84V231ZM1702.05 233.576C1733.95 233.576 1756.94 209.998 1756.94 179.088C1756.94 148.179 1734.15 124.601 1702.25 124.601C1670.35 124.601 1647.37 148.179 1647.37 179.088C1647.37 210.196 1670.15 233.576 1702.05 233.576ZM1702.05 211.384C1684.02 211.384 1671.14 197.911 1671.14 179.088C1671.14 160.661 1683.83 146.792 1702.05 146.792C1720.28 146.792 1733.16 160.661 1733.16 179.088C1733.16 197.713 1720.28 211.384 1702.05 211.384ZM1776.71 231H1800.09V169.776C1800.09 156.699 1809.8 146.792 1822.68 146.792C1834.57 146.792 1843.68 155.708 1843.68 168.587V231H1867.06V163.039C1867.06 141.64 1852.6 124.601 1829.82 124.601C1815.95 124.601 1806.44 131.139 1801.88 139.065H1800.09V127.176H1776.71V231Z" fill="#F8F8F8"/>
</svg>
