<svg width="232" height="291" viewBox="0 0 232 291" fill="none" xmlns="http://www.w3.org/2000/svg">
<path d="M44.1634 290.517H218.528C225.631 290.517 231.126 285.022 231.126 277.918C231.126 271.887 226.971 267.464 221.879 265.052C205.394 257.681 202.177 234.897 218.93 218.948C225.765 212.917 230.992 206.216 230.992 192.679V44.3153C230.992 15.3662 216.116 0.221548 187.301 0.221548H44.4314C15.7504 0.221548 0.739767 15.2322 0.739767 44.3153V246.825C0.739767 275.506 15.7504 290.517 44.1634 290.517ZM184.888 26.8922C197.888 26.8922 204.322 33.7274 204.322 46.0576V188.525C204.322 195.092 200.569 198.71 193.868 198.71H62.2566V26.8922H184.888ZM27.4105 203.401V46.0576C27.4105 34.9336 32.6374 28.3665 43.2252 27.1603V198.844C37.1942 199.381 31.9673 200.989 27.4105 203.401ZM86.2468 88.275H179.929C185.156 88.275 189.445 83.9863 189.445 78.7593C189.445 73.5324 185.156 69.2437 179.929 69.2437H86.2468C81.0199 69.2437 76.7311 73.5324 76.7311 78.7593C76.7311 83.9863 81.0199 88.275 86.2468 88.275ZM86.2468 125.668H157.279C162.506 125.668 166.795 121.379 166.795 116.152C166.795 110.925 162.506 106.636 157.279 106.636H86.2468C81.0199 106.636 76.7311 110.925 76.7311 116.152C76.7311 121.379 81.0199 125.668 86.2468 125.668ZM47.782 265.32C33.4415 265.32 25.9362 257.145 25.9362 244.546C25.9362 232.35 34.5137 223.907 48.7202 223.907H182.476C183.95 223.907 185.424 223.773 186.764 223.505C180.063 237.711 180.867 253.124 188.105 265.32H47.782Z" fill="#0366D6"/>
</svg>
