<svg width="1880" height="323" viewBox="0 0 1880 323" fill="none" xmlns="http://www.w3.org/2000/svg">
<path d="M142.985 308.975H318.996C326.166 308.975 331.713 303.428 331.713 296.257C331.713 290.169 327.519 285.705 322.378 283.27C305.738 275.829 302.491 252.83 319.402 236.73C326.302 230.642 331.578 223.878 331.578 210.214V60.4491C331.578 31.2267 316.561 15.939 287.474 15.939H143.256C114.304 15.939 99.1517 31.0914 99.1517 60.4491V264.87C99.1517 293.822 114.304 308.975 142.985 308.975ZM141.226 219.819C136.762 219.819 132.974 216.166 132.974 211.567V46.9202C132.974 42.3204 136.762 38.6676 141.226 38.6676C145.691 38.6676 149.479 42.3204 149.479 46.9202V211.567C149.479 216.166 145.691 219.819 141.226 219.819ZM187.225 104.553C181.813 104.553 177.078 99.9534 177.078 94.5418C177.078 88.8597 181.813 84.3952 187.225 84.3952H285.174C290.721 84.3952 295.32 88.8597 295.32 94.5418C295.32 99.9534 290.721 104.553 285.174 104.553H187.225ZM187.225 143.787C181.813 143.787 177.078 139.322 177.078 133.64C177.078 128.229 181.813 123.629 187.225 123.629H261.633C267.18 123.629 271.78 128.229 271.78 133.64C271.78 139.322 267.18 143.787 261.633 143.787H187.225ZM146.638 283.54C132.162 283.54 124.586 275.288 124.586 262.57C124.586 250.259 133.244 241.736 147.585 241.736H282.603C284.091 241.736 285.58 241.601 286.932 241.33C280.168 255.671 280.98 271.229 288.285 283.54H146.638Z" fill="#0366D6"/>
<path d="M451.377 233.155C469.407 233.155 477.927 223.644 482.286 218.295H484.069V230.579H507.053V81.9766H483.673V140.031H481.89C477.332 134.087 468.416 124.18 449.99 124.18C422.052 124.18 402.04 147.758 402.04 178.667C402.04 210.171 423.439 233.155 451.377 233.155ZM455.141 211.36C438.894 211.36 425.619 198.481 425.619 178.865C425.619 159.646 438.299 146.173 454.943 146.173C470.992 146.173 484.267 158.259 484.267 178.865C484.267 196.5 472.775 211.36 455.141 211.36ZM579.525 233.155C611.425 233.155 634.408 209.577 634.408 178.667C634.408 147.758 611.623 124.18 579.723 124.18C547.823 124.18 524.839 147.758 524.839 178.667C524.839 209.775 547.625 233.155 579.525 233.155ZM579.525 210.964C561.494 210.964 548.615 197.49 548.615 178.667C548.615 160.241 561.296 146.371 579.525 146.371C597.753 146.371 610.632 160.241 610.632 178.667C610.632 197.292 597.753 210.964 579.525 210.964ZM701.143 233.155C725.514 233.155 745.922 219.682 751.866 194.518L729.675 189.169C726.901 202.642 715.805 210.964 701.738 210.964C683.905 210.964 671.225 197.292 671.225 178.667C671.225 160.439 683.509 146.371 701.54 146.371C715.607 146.371 726.703 154.891 729.477 168.364L751.668 163.014C745.724 137.851 725.316 124.18 700.945 124.18C669.243 124.18 647.25 148.352 647.25 178.667C647.25 208.982 668.847 233.155 701.143 233.155ZM809.009 233.155C822.878 233.155 832.389 226.616 836.946 218.691H838.729V230.579H862.109V126.755H838.729V187.385C838.729 200.462 829.02 210.369 816.142 210.369C804.253 210.369 795.139 201.453 795.139 188.574V126.755H771.759V194.716C771.759 216.115 786.223 233.155 809.009 233.155ZM888.946 230.579H912.326V168.959C912.326 155.287 921.639 146.371 932.932 146.371C944.028 146.371 952.746 153.9 952.746 166.581V230.579H976.126V169.355C976.126 154.495 985.637 146.371 996.93 146.371C1008.42 146.371 1016.35 154.098 1016.35 169.355V230.579H1039.93V161.628C1039.93 140.427 1024.67 124.18 1002.48 124.18C988.212 124.18 977.909 130.718 971.965 141.021H970.182C964.832 131.114 954.926 124.18 940.66 124.18C926.988 124.18 918.27 131.313 914.109 138.446H912.326V126.755H888.946V230.579ZM1110.73 233.155C1132.33 233.155 1151.35 222.455 1158.08 200.859L1136.68 195.707C1132.92 207.199 1122.02 213.143 1110.53 213.143C1093.49 213.143 1082.2 202.047 1082 184.611H1160.66V178.073C1160.66 147.164 1141.44 124.18 1109.74 124.18C1081.8 124.18 1057.83 146.173 1057.83 178.865C1057.83 210.567 1079.03 233.155 1110.73 233.155ZM1082.2 167.572C1083.58 155.089 1094.88 144.588 1109.74 144.588C1124 144.588 1135.69 153.504 1136.88 167.572H1082.2ZM1180.4 230.579H1203.78V169.355C1203.78 156.278 1213.49 146.371 1226.37 146.371C1238.26 146.371 1247.37 155.287 1247.37 168.166V230.579H1270.75V162.618C1270.75 141.219 1256.29 124.18 1233.5 124.18C1219.63 124.18 1210.12 130.718 1205.56 138.644H1203.78V126.755H1180.4V230.579ZM1339.05 230.579H1357.28V209.775H1339.25C1332.11 209.775 1329.14 206.605 1329.14 199.273V147.362H1358.47V126.755H1329.14V97.6294H1306.95V126.755H1287.53V147.362H1305.56V199.472C1305.56 221.465 1318.84 230.579 1339.05 230.579ZM1421.37 233.155C1439.4 233.155 1448.52 223.842 1452.48 217.502H1454.26C1455.05 224.239 1459.81 230.579 1469.12 230.579H1486.76V210.765H1482.2C1479.03 210.765 1477.44 208.982 1477.44 206.208V126.755H1454.06V139.436H1452.28C1447.72 133.096 1438.21 124.18 1420.78 124.18C1393.04 124.18 1372.43 147.164 1372.43 178.667C1372.43 210.171 1393.43 233.155 1421.37 233.155ZM1425.53 210.567C1409.09 210.567 1396.21 198.481 1396.21 178.865C1396.21 159.646 1408.69 146.569 1425.33 146.569C1441.18 146.569 1454.46 158.259 1454.46 178.865C1454.46 196.5 1443.17 210.567 1425.53 210.567ZM1549.24 230.579H1567.47V209.775H1549.43C1542.3 209.775 1539.33 206.605 1539.33 199.273V147.362H1568.65V126.755H1539.33V97.6294H1517.14V126.755H1497.72V147.362H1515.75V199.472C1515.75 221.465 1529.03 230.579 1549.24 230.579ZM1613.73 110.706C1622.25 110.706 1628.59 104.366 1628.59 96.0443C1628.59 87.9207 1622.25 81.5803 1613.73 81.5803C1605.21 81.5803 1598.87 87.9207 1598.87 96.0443C1598.87 104.366 1605.21 110.706 1613.73 110.706ZM1601.84 230.579H1625.22V126.755H1583.61V147.362H1601.84V230.579ZM1702.05 233.155C1733.95 233.155 1756.94 209.577 1756.94 178.667C1756.94 147.758 1734.15 124.18 1702.25 124.18C1670.35 124.18 1647.37 147.758 1647.37 178.667C1647.37 209.775 1670.15 233.155 1702.05 233.155ZM1702.05 210.964C1684.02 210.964 1671.14 197.49 1671.14 178.667C1671.14 160.241 1683.83 146.371 1702.05 146.371C1720.28 146.371 1733.16 160.241 1733.16 178.667C1733.16 197.292 1720.28 210.964 1702.05 210.964ZM1776.71 230.579H1800.09V169.355C1800.09 156.278 1809.8 146.371 1822.68 146.371C1834.57 146.371 1843.68 155.287 1843.68 168.166V230.579H1867.06V162.618C1867.06 141.219 1852.6 124.18 1829.82 124.18C1815.95 124.18 1806.44 130.718 1801.88 138.644H1800.09V126.755H1776.71V230.579Z" fill="#0D0D0D"/>
</svg>
